<svg width="26" height="27" viewBox="0 0 26 27" fill="none" xmlns="http://www.w3.org/2000/svg">
<path d="M13.0771 0C5.95706 0 0.154127 5.80293 0.154127 12.9229C0.154127 15.205 0.753981 17.4218 1.87545 19.3779L0.0498047 26.0806L6.89596 24.281C8.7868 25.3112 10.9124 25.8589 13.0771 25.8589C20.1971 25.8589 26 20.056 26 12.936C26 9.4803 24.6568 6.23326 22.2183 3.79473C19.7798 1.34315 16.5327 0 13.0771 0ZM13.0901 2.17773C15.959 2.17773 18.6453 3.2992 20.6796 5.33348C22.7008 7.36777 23.8223 10.0671 23.8223 12.936C23.8223 18.8563 18.9974 23.6681 13.0771 23.6681C11.1471 23.6681 9.25626 23.1596 7.61318 22.1685L7.22197 21.9468L3.1534 23.0161L4.23574 19.0519L3.97493 18.6346C2.90563 16.9524 2.33186 14.9572 2.33186 12.9229C2.3449 7.00264 7.15677 2.17773 13.0901 2.17773ZM8.49992 6.95048C8.29127 6.95048 7.93918 7.02872 7.63926 7.35473C7.35237 7.68074 6.50475 8.47619 6.50475 10.0541C6.50475 11.645 7.66534 13.1707 7.80878 13.3924C7.99135 13.6141 10.1039 16.8741 13.3509 18.2564C14.1203 18.6085 14.7201 18.8041 15.1896 18.9476C15.959 19.1953 16.6631 19.1562 17.2239 19.078C17.8498 18.9867 19.1278 18.2955 19.4016 17.5392C19.6755 16.7829 19.6755 16.1439 19.5972 16.0004C19.5059 15.87 19.2973 15.7918 18.9713 15.6484C18.6453 15.4658 17.0544 14.6834 16.7675 14.5791C16.4675 14.4747 16.285 14.4226 16.0372 14.7355C15.8286 15.0615 15.2026 15.7918 15.0201 16.0004C14.8245 16.2221 14.6419 16.2482 14.3289 16.0917C13.9899 15.9222 12.9467 15.5832 11.7209 14.4878C10.7559 13.6271 10.1169 12.5708 9.92131 12.2448C9.76483 11.9319 9.90827 11.7363 10.0648 11.5928C10.2082 11.4494 10.4168 11.2147 10.5472 11.0191C10.7168 10.8365 10.7689 10.693 10.8733 10.4844C10.9776 10.2627 10.9254 10.0801 10.8472 9.92367C10.7689 9.78022 10.1169 8.16323 9.84307 7.52425C9.58226 6.89832 9.32146 6.97656 9.11281 6.96352C8.93025 6.96352 8.7216 6.95048 8.49992 6.95048Z" fill="white"/>
</svg>
